<?xml version="1.0"?>
<svg width="1000" height="666.66669" xmlns="http://www.w3.org/2000/svg" xmlns:svg="http://www.w3.org/2000/svg" version="1.1" xml:space="preserve">
 <metadata id="metadata8">image/svg+xml</metadata>
 <defs id="defs6">
  <clipPath clipPathUnits="userSpaceOnUse" id="clipPath20">
   <path d="m4,512l750,0l0,-500l-750,0l0,500z" id="path18"/>
  </clipPath>
 </defs>
 <g class="layer">
  <title>Layer 1</title>
  <g id="g10" transform="matrix(1.33333 0 0 -1.33333 0 666.667)">
   <g id="g14">
    <g clip-path="url(#clipPath20)" id="g16">
     <g id="g22" transform="translate(735.969 28.1414)">
      <path d="m4,12l-297.52,0c-3.26,69.21 -12.04,106.87 -12.04,106.87c-1.84,2.97 -4.08,11.03 -4.08,11.03l1.42,-10.21c-49.8,-27.97 -138.6,-6.53 -138.6,-6.53l2.04,19.18c94.72,-22.25 135.34,0.82 135.34,0.82c-2.4,9.07 -2.45,12.76 0.79,21.56l5.13,13.96c4.49,10.41 18.17,62.06 18.17,62.06c3.01,-20.8 -12.26,-58.9 -12.26,-58.9c2.65,-9.4 12.05,-18.88 12.05,-18.88l1.43,-4.49l4.08,-2.86c-0.4,-6.32 5.11,-12.04 5.11,-12.04l3.67,-2.45c4.29,-7.14 22.25,-7.35 22.25,-7.35c18.87,0 50.45,12.97 62.49,18.23c3.12,1.36 5.62,3.85 6.99,6.97l2.06,4.64c1.35,3.05 1.53,6.49 0.52,9.67c-2.35,7.36 -5.71,19.08 -5.71,19.08l2.69,-14.16c0.9,-4.72 0.21,-9.6 -1.96,-13.88l-3.07,-6.07c-1.63,-3.22 -6.03,-3.75 -8.35,-1c-26.02,30.93 -14.22,46.34 -14.22,46.34c-5.99,-11.14 6.74,-28.58 6.74,-28.58c2.45,8.16 18.55,21.43 18.55,21.43c2.51,0.94 8.2,5.19 13.68,7.46c9.7,4.02 20.02,6.47 20.02,6.47l5.84,0.75c13.69,2.28 22.18,4.77 19.03,7.71c-55.59,-6.47 -69.21,2.34 -69.21,2.34c33.02,-5.95 81.84,1.55 89.16,3.3c6.48,1.55 13.79,3.81 19.87,6.53c3.24,1.45 9.39,5.26 8.1,9.46c-1.31,4.27 -7.89,4.16 -11.46,4.34c-2.78,0.15 -3.37,-0.12 -4.12,2.54c-0.82,2.86 -1.93,5.6 -2.83,8.44c-3.04,9.61 -7.85,19.13 -15.11,26.25c-3.66,3.6 -7.95,6.58 -12.63,8.72c-4.82,2.21 -10.33,3.88 -15.62,4.39c-1.23,0.12 -2.46,0.16 -3.68,0.1c-0.08,2.29 0.11,5.36 -3.13,5.03c-3.36,-0.33 -2.51,-2.7 -2.82,-5.03c0,0 -46.11,1.47 -52.14,-44.78c-0.41,-3.18 -1.05,-6.62 -0.41,-9.81c16.37,-6.77 44.19,-7.44 56.62,-7.75c28.6,-0.7 39.93,7.72 39.93,7.72c-0.96,-6.64 -11.79,-8.59 -16.91,-9.73c-7.43,-1.66 -15.19,-1.35 -22.78,-1.35c-14.48,0 -28.61,1.97 -42.82,4.15c-3.96,0.61 -8.14,1.16 -11.9,2.62c-1.5,0.58 -2.92,1.11 -4.1,2.22c-1.28,1.22 -1.18,1.87 -1.66,3.48c-2.62,-1.13 -5.19,-2.38 -7.75,-3.64c-2.52,-1.24 -6.59,-2.57 -7.96,-5.28c-3.26,-6.46 21.36,-11.82 23.91,-11.53c-3.02,-3.58 -8.82,-8.11 -10.31,-13.36c-1.37,0.79 -4.11,-0.46 -5.46,-1.11c-2.79,-1.32 -19.65,-11.86 -22.16,-12.55c-3.1,-0.85 -6.12,-0.5 -8.87,-2.34c-1.88,-1.25 -15.99,-5.18 -31.11,-24.57c1.4,4.82 5.28,9.84 8.96,13.18c5.27,4.78 12.7,10.12 21.39,12.81c-1.24,3.66 -4.04,5.35 -4.84,9.29c-1.15,5.73 -3.85,9.53 -6.76,14.48c-2.45,4.15 -4.03,8.66 -6.34,12.92c-2.31,4.25 -4.41,8.61 -6.13,13.14c-2.56,6.76 -5.31,13.48 -8.03,20.18c-1.42,3.47 -3.61,6.61 -4.92,10.09c-0.75,1.99 -1.02,3.43 -2.56,4.96c-3.66,3.63 -8.89,5.98 -13.25,8.75c-7.96,5.04 -46.29,26.02 -46.29,26.02c-0.09,1.1 0.2,1.95 0.54,2.97c0.8,2.38 1.82,4.68 2.5,7.12c0.54,1.95 0.18,3.76 0.47,5.7c0.18,1.2 0.76,2.07 1.46,3.09c1.22,1.81 2.18,3.69 2.59,5.87c0.53,2.72 0.28,5.61 0.27,8.38c0,2.81 0.34,5.62 0.87,8.39c0.79,4.18 1.48,9.26 5.81,11.15c4.42,1.92 6.97,-11.62 -0.89,-18.34c-0.91,-0.78 -2.5,-1.92 -3.73,-0.99c-0.99,0.75 -0.7,2.59 -0.7,3.69c0,3.16 0.49,5.86 1.45,8.84c2.34,7.27 4.92,8.16 5.98,15.72c0.62,4.41 -0.01,19.43 -0.01,19.43c0.05,0.87 -0.09,4.92 0.48,5.44c0.37,0.33 1.49,0.13 2,0.3c0.86,0.29 1.73,0.99 2.42,1.56c1.47,1.19 2.67,2.72 3.5,4.42c1.64,3.37 1.73,7.39 -0.04,10.74c-0.65,1.24 -1.92,2.96 -3.34,3.3c-0.74,0.17 -2.71,0.02 -3.25,-0.61c-1.97,-2.31 2.79,-2 3.72,-1.75c3.81,1.04 7.26,3.66 7.61,7.81c1.18,14.06 -19.87,27.49 -31.94,19.84c-1.69,-1.07 -3.13,-2.73 -3.86,-4.61c-0.85,-2.18 0.45,-3.19 1.36,-4.9c0.44,0.14 1.11,-0.01 1.51,0.22c3.12,1.77 -3.34,7.85 -4.9,8.7c-6.26,3.42 -13.8,3.51 -20.2,0.4c-2.79,-1.36 -6.02,-2.88 -7.34,-5.87c-0.95,-2.14 -0.78,-5.06 2.17,-5.01c1.67,0.03 2.86,1.7 2.69,3.16c-0.23,1.91 -2,3.28 -3.69,4c-9.73,4.2 -28.72,2.45 -30.36,-10.84c-0.31,-2.5 -0.87,-6.04 1.52,-7.8c0.93,-0.68 4.76,-1.54 5.4,0.18c0.52,1.42 -2.27,3.45 -3.44,3.71c-2.86,0.63 -7.01,-0.18 -9.53,-1.68c-2.61,-1.55 -4.84,-5.59 -6.04,-8.29c-1.41,-3.19 -1.95,-6.88 -0.88,-10.21c1.26,-3.94 4.4,-5.99 8.21,-7c2.52,-0.68 5.43,-0.85 7.51,-2.56c1.75,-1.43 2.07,-2.93 2.53,-5.08c0.37,-1.73 0.9,-3.49 1.05,-5.25c0.14,-1.56 0.45,-5.27 -0.81,-6.47c-1.16,0.71 -1.29,3.84 -1.49,5.13c-0.43,2.74 -0.4,5.44 -0.4,8.24c0,2.46 -0.46,5.77 1.73,7c37.19,20.84 62.93,12.4 70.36,9.87c2.4,-0.82 2.69,-1.99 3.08,-4.38c0.32,-1.92 0.29,-3.92 0.5,-5.86c0.41,-3.77 0.41,-7.49 0.41,-11.29c0,-3.85 -0.67,-18.02 -1.35,-18.99l-0.4,-0.14c-1.9,2.57 -4.42,3.66 -5.44,4.11c-6.97,3.07 -15.14,4 -22.56,5.32c-11.7,2.09 -23.85,2.83 -35.62,0.73c-1.57,-0.28 -3.11,-0.72 -4.6,-1.26c-1.14,-0.41 -2.85,-1 -3.4,-1.97c-0.4,-0.7 -0.18,-1.92 -0.18,-2.74c0,-2.07 -0.07,-4.05 -0.38,-6.11c-0.34,-2.23 -0.46,-4.48 -0.71,-6.72c-0.16,-1.53 -0.11,-3.97 -1.2,-5.21c-1.49,-1.7 -2.71,1.14 -3.37,2.34c-1.41,2.58 -2.37,5.77 -3.19,8.6c-0.87,3 -0.81,7.24 0.59,10.1c0.87,1.77 3.05,1.86 4.43,0.4c1.09,-1.16 1.41,-3.18 2.03,-4.61c0.85,-1.99 0.69,-4.53 1.04,-6.67c0.67,-4.12 0.04,-7.7 -0.55,-11.75c-0.9,-6.26 -2.27,-13.12 0.87,-18.99c1.21,-2.27 10.39,-16.81 12.17,-18.74c1.78,-1.93 3.86,-3.42 6.11,-4.75c4.5,-2.67 9.2,-3.02 14.32,-3.02c15.04,-0.01 27.8,16.6 27.8,16.6l0.33,0.21l-0.53,-2.17c-0.9,-3.63 -2.99,-6.86 -5.95,-9.15c-4.31,-3.34 -9.26,-5.84 -14.55,-7.1c-0.91,-0.22 -1.81,-0.43 -2.69,-0.66c-1.3,-0.33 -6.56,-0.74 -7.37,-1.68c-0.73,-0.87 -0.04,-3.25 0.01,-4.26c0.12,-2.26 0.26,-2.84 -1.99,-3.18c-0.85,-0.12 -1.72,-0.13 -2.58,-0.07c-5.78,0.35 -10.9,-0.5 -16.38,-0.8c-3.55,-0.19 -9.66,-0.79 -8.46,-5.94c1.16,-4.96 8.93,-2.08 7.21,2.43c-1.81,4.74 -7.56,1.55 -8.78,-1.8c-1.25,-3.39 -1.49,-6.92 -1.7,-10.5c-0.24,-4.15 -1.34,-8.09 -1.33,-12.33c0.01,-4.96 0,-9.93 0,-14.89c0,-3.75 -1.57,-13.4 1.7,-16.16c4.84,-4.08 10.41,2.26 7.09,7.15c-3.22,4.76 -7.82,-1.57 -8.73,-4.75c-1.48,-5.16 -2.3,-10.55 -3.1,-15.85c-1.43,-9.38 -0.52,-20.24 -0.05,-29.69c0.1,-2.04 0.63,-14.06 5.5,-9.3c2.89,2.82 -1.48,12.44 -5.75,7.54c-3.28,-3.78 -2.58,-11.37 -2.38,-15.95c0.24,-5.27 0.23,-10.56 0.23,-15.85l-0.44,0c-1.2,6.26 -1.09,45.69 -1.09,52.11c0,14.81 0.9,29.6 1.64,44.39c0.39,7.77 1.11,15.51 2.2,23.2c0.74,5.3 1.47,11.45 4.05,16.2c2.41,4.44 6.2,5.05 10.87,5.04c3.59,0 7.16,0.01 10.69,-0.61c1.71,-0.31 3.5,-0.81 5.2,-0.24c0.09,1.58 0.28,3.06 0.44,4.56c-6.41,0.68 -12.78,4.24 -17.44,8.69c-3.01,2.88 -5.25,6.92 -7.12,10.66c-1.44,2.88 -1.71,6.19 -3.11,8.98c-1.23,-1.51 -1.47,-6.3 -1.94,-8.55l-0.13,-1.27c-2.99,-1.44 -7.8,-2.53 -11.61,-3.23c-4.46,-0.81 -8.85,-1.93 -13.13,-3.41l-15.8,-5.43c-11.83,-21.68 -18.26,-26.2 -20.51,-27.14c-1.65,-0.69 -3.25,-1.46 -4.73,-2.46c-2.66,-1.78 -5.4,-3.91 -5.4,-3.91c0,0 5.67,6.35 7.43,7.43c4.6,2.82 8.47,6.7 11.26,11.32c2.15,3.57 4.39,7.31 5,8.28c1.11,1.74 1.93,3.63 3.07,5.34c0.89,1.33 1.99,2.36 3.26,3.33c0.45,0.34 1.15,1.59 1.76,2.82c0.75,1.51 1.06,3.18 0.98,4.86c-0.03,0.6 -0.02,1.19 0.04,1.71c0.2,1.98 1.4,3.51 2.09,5.31c1.89,5.04 -4.96,4.76 -7.51,2.59c0,0 -5.37,-5.79 -5.58,-9.75c-2.22,-0.47 -3.95,-3.71 -5.91,-4.89c-2.56,-1.55 -4.66,0.94 -6.48,2.65c-0.85,0.8 -4.39,4.86 -4.64,5.78c-0.26,1 1.55,6.14 4.55,7.16c0.58,0.19 5.18,0.33 5.92,-0.79c0.46,-0.71 0.95,-4.82 5.95,-5.3c2.17,-0.2 5.55,3.7 3.54,6.32c-1.09,1.42 -1.34,4.17 -2.32,5.56l-1.17,1.03c-1.87,1.15 -8.2,5.26 -13.51,5.53c-1.82,0.09 -3.39,-1.56 -4.72,-2.71c-1.5,-1.3 -3.44,-2.39 -4.78,-3.79c1.57,6.23 3.59,12.33 5.23,18.59c0.7,2.63 1.53,4.68 3.02,6.99c1.67,2.58 3.84,5.48 2.71,8.72c-2.87,8.31 -9.4,-1.85 -11.25,-5.09c-2.51,-4.39 -3.84,-9.3 -6.26,-13.72c-1.34,-2.44 -1.83,-3.55 -1.59,-6.3c0.28,-3.19 1.17,-7.62 0.28,-10.7c-0.52,3.75 -1.78,7.1 -2.82,10.71c-0.79,2.74 1.13,6.58 1.62,9.42c0.48,2.8 3.85,15.14 -0.84,15.98c-2.71,0.48 -3.98,-4.04 -4.81,-5.78c-1.19,-2.47 -2.95,-4.42 -3.2,-7.22c-0.46,-5.01 -0.65,-10.03 -1.15,-15.07c-0.55,-5.43 1.03,-9.4 3.39,-14.22c-2.14,2.15 -4.07,4.8 -5.51,7.49c-1.16,2.16 -0.98,5.02 -0.59,7.46c0.57,3.58 1.99,12.21 -3.07,12.89l-1.16,-0.19c-3.74,-1.77 -4.21,-18.35 -3.69,-21.73c0.96,-6.27 3.82,-9.96 6.3,-15.66c3.3,-7.57 2.54,-18.9 0.89,-26.79c-1.2,-5.72 -5.61,-8.94 -8.42,-13.76c-2.64,-4.52 -3.16,-9.56 -6.17,-13.88c-2.28,-3.26 -5.49,-9.48 -3.67,-13.74c1.75,-4.13 8.28,-2.41 11.83,-1.26c5.79,1.88 10.26,5.92 14.69,9.95c3.65,3.32 9.32,11.51 14.07,12.42c0.94,-7.46 -2.29,-16.3 -4.45,-23.37c-1.6,-5.25 -4.09,-10.05 -5.79,-15.22c-1.73,-5.28 -6.01,-11.41 -6.71,-16.81c3.31,16.85 13.81,31.64 14.11,49.42c-10.06,-12.27 -21.24,-31.07 -40.62,-23.69c-7.68,2.93 -8.66,8.92 -6.09,16.18c3.64,10.29 11.31,15.46 19.43,22.08c-7.79,-5.38 -21.84,-13.49 -24.46,-23.09c-1.18,-4.29 -0.31,-8.12 -3.42,-11.9c-3.7,-4.49 -7.94,-7.17 -10.59,-12.7c-3.18,-6.67 -6.29,-14.66 -7.79,-21.91c-1.63,-7.85 -4.67,-17.27 -2.67,-25.23c2.25,-8.91 6.56,-14.05 15.14,-16.57c7.76,-2.28 15.46,-6.57 22.34,-0.78c9.48,7.96 20.62,14.37 28.21,24.15c5.61,7.23 14.85,10.55 20.11,18.36c4.57,6.78 12.27,9.41 13.31,18.6c1.2,10.58 -0.39,21.71 0.39,32.25c-4.93,-16.32 -3.06,-33.17 -3.06,-50.01l0,-40.2c0,-3.57 0,-7.14 0,-10.71c-0.01,-5.23 1.6,-5.9 4.12,-10.15c3.23,-5.44 2.43,-12.77 1.31,-18.68c-1.3,-6.93 -6.34,-11.86 -7.8,-18.73c-1.35,-6.39 -2.42,-12.95 -3.15,-19.42c-0.8,-6.96 -1.78,-13.9 -2.33,-20.9c-0.48,-5.96 0.16,-29.01 -1.22,-52.66l-246.13,0" fill="none" id="path24" stroke="#000000" stroke-linecap="round" stroke-linejoin="round" stroke-miterlimit="10" stroke-width="2"/>
     </g>
    </g>
   </g>
  </g>
 </g>
</svg>