<?xml version="1.0" encoding="UTF-8" standalone="no"?>
<svg
   xmlns:dc="http://purl.org/dc/elements/1.1/"
   xmlns:cc="http://creativecommons.org/ns#"
   xmlns:rdf="http://www.w3.org/1999/02/22-rdf-syntax-ns#"
   xmlns:svg="http://www.w3.org/2000/svg"
   xmlns="http://www.w3.org/2000/svg"
   viewBox="0 0 1000 666.66669"
   height="666.66669"
   width="1000"
   xml:space="preserve"
   id="svg2"
   version="1.1"><metadata
     id="metadata8"><rdf:RDF><cc:Work
         rdf:about=""><dc:format>image/svg+xml</dc:format><dc:type
           rdf:resource="http://purl.org/dc/dcmitype/StillImage" /></cc:Work></rdf:RDF></metadata><defs
     id="defs6"><clipPath
       id="clipPath20"
       clipPathUnits="userSpaceOnUse"><path
         id="path18"
         d="M 0,500 H 750 V 0 H 0 Z" /></clipPath></defs><g
     transform="matrix(1.3333333,0,0,-1.3333333,0,666.66667)"
     id="g10"><path
       id="path12"
       style="fill:#ffca72;fill-opacity:1;fill-rule:nonzero;stroke:none"
       d="M 0,0 H 750 V 500 H 0 Z" /><g
       id="g14"><g
         clip-path="url(#clipPath20)"
         id="g16"><g
           transform="translate(17.0784,23.3598)"
           id="g22"><path
             id="path24"
             style="fill:#000000;fill-opacity:1;fill-rule:nonzero;stroke:none"
             d="m 0,0 h 38.133 91.569 110.762 95.713 31.359 c 4.872,0 10.219,-0.626 15.062,0 0.203,0.026 0.426,0 0.632,0 0.543,0 0.996,0.458 1,1 0.111,16.266 1.25,32.493 2.778,48.682 0.768,8.145 1.272,16.012 4.156,23.728 1.201,3.216 2.473,6.441 3.028,9.846 0.573,3.513 0.441,7.111 0.446,10.657 0.011,7.182 1.596,14.008 0.118,21.152 -0.761,3.675 -2.051,7.172 -3.147,10.75 -1.244,4.064 -2.05,8.305 -2.886,12.47 -3.013,15.015 -5.525,30.14 -8.438,45.174 -3.204,16.528 -8.208,33.966 -2.898,50.595 h -1.929 c 1.211,-7.361 2.481,-14.72 3.238,-22.145 0.608,-5.963 0.377,-11.976 1.151,-17.91 0.365,-2.794 0.898,-5.791 0.372,-8.601 -0.653,-3.481 -3.593,-5.666 -6.43,-7.463 -4.826,-3.057 -10.344,-4.778 -15.73,-6.557 -4.832,-1.596 -9.919,-4.538 -14.978,-5.066 -5.065,-0.529 -8.581,2.664 -11.643,6.279 -1.437,1.696 -2.66,3.762 -4.244,5.311 -1.683,1.646 -4.13,2.845 -6.031,4.256 -3.155,2.343 -6.361,4.858 -8.781,7.988 -3.915,5.062 -3.935,11.144 -3.567,17.262 0.384,6.386 0.986,12.695 0.999,19.093 0.013,6.252 0.365,12.655 -0.149,18.891 -0.63,7.664 -4.807,14.797 -9.795,20.449 -6.82,7.728 -15.498,13.486 -22.964,20.531 -4.204,3.969 -9.172,8.707 -10.213,14.58 -1.184,6.68 -6.881,10.633 -8.689,17.032 -0.322,-0.422 -0.643,-0.843 -0.965,-1.265 2.163,-0.132 4.273,-0.574 6.412,-0.891 -0.244,0.322 -0.489,0.643 -0.734,0.965 0.053,-2.874 -0.04,-5.755 -0.103,-8.629 -0.024,-1.132 1.669,-1.352 1.965,-0.266 0.731,2.683 0.754,7.275 4.106,7.437 0.551,0.027 2.461,0.125 2.881,-0.32 0.375,-0.397 0.017,-2.05 -0.021,-2.757 -0.134,-2.506 -0.628,-5.291 0.188,-7.725 1.035,-3.089 3.111,-6.082 4.734,-8.878 1.601,-2.758 3.196,-6.268 5.592,-8.455 0.666,-0.607 2.079,-0.021 1.671,0.973 -1.652,4.034 -5.161,8.345 -5.105,12.844 0.03,2.465 0.432,5.058 0.608,7.53 0.207,2.905 0.891,7.444 4.934,5.448 3.261,-1.61 1.272,-9.653 1.443,-12.658 0.222,-3.923 1.905,-7.192 5.07,-9.566 4.105,-3.078 5.712,-3.04 7.213,2.006 1.784,5.996 2.422,12.122 3.726,18.197 1.174,5.467 13.087,3.819 17.202,4.299 7.142,0.834 13.295,3.896 13.894,11.749 0.041,0.541 -0.492,0.998 -1,1 -8.951,0.034 -17.903,0.068 -26.853,0.101 0.235,-0.569 0.471,-1.138 0.707,-1.707 2.347,2.72 3.559,6.823 -0.007,9.167 -3.332,2.191 -7.541,0.111 -9.209,-3.165 -0.153,-0.302 -0.21,-0.713 0,-1.01 2.965,-4.172 7.753,4.808 3.342,8.033 -4.217,3.085 -12.364,-0.546 -12.045,-5.997 0.05,-0.842 1.07,-1.349 1.707,-0.708 2.768,2.785 3.218,7.307 -1.342,8.468 -5.049,1.285 -7.225,-3.629 -6.694,-7.831 0.076,-0.596 0.584,-1.197 1.266,-0.964 5.418,1.851 1.034,10.163 -2.149,12.239 -6.248,4.074 -11.738,-4.835 -11.642,-10.17 0.014,-0.804 1.124,-1.4 1.707,-0.707 1.577,1.876 2.809,4.354 1.493,6.736 -0.979,1.772 -3.135,2.689 -5.094,2.211 -2.42,-0.591 -4.331,-3.528 -4.278,-5.97 0.053,-2.442 2.452,-3.529 3.505,-1.049 1.926,4.533 -0.971,10.136 -6.129,9.588 -5.462,-0.581 -7.877,-6.009 -6.734,-10.896 0.078,-0.33 0.373,-0.617 0.699,-0.699 3.814,-0.954 3.122,4.006 0.717,5.493 -2.465,1.524 -6.035,0.517 -7.737,-1.71 -4.037,-5.286 0.414,-12.353 6.459,-12.723 v 2 c -6.392,0.19 -12.838,-0.264 -19.223,-0.55 -0.819,-0.037 -1.164,-0.807 -0.863,-1.505 4.774,-11.08 20.925,-8.269 30.742,-8.301 12.378,-0.042 24.819,0.143 37.186,-0.486 2.524,-0.129 4.325,-0.578 4.553,-3.703 0.241,-3.301 -0.793,-6.764 -1.209,-10.038 -0.457,-3.607 -1.249,-7.52 -0.082,-11.078 1.222,-3.724 4.41,-4.863 7.269,-7.088 3.848,-2.996 7.89,-7.186 8.864,-12.138 0.533,-2.711 -1.292,-4.887 -0.375,-7.294 1.992,-5.232 4.916,-10.281 7.363,-15.311 1.512,-3.107 3.025,-6.214 4.594,-9.293 0.481,-0.943 0.969,-1.882 1.479,-2.81 1.921,-3.496 2.819,-5.796 1.407,-9.655 -4.333,-11.848 -12.591,-23.068 -22.989,-30.263 -0.715,-0.494 -0.607,-1.548 0.239,-1.828 7.399,-2.448 13.95,7.179 17.437,12.273 2.332,3.406 4.364,6.961 6.808,10.296 2.88,3.931 5.513,8.018 4.506,13.075 -0.41,-0.41 -0.82,-0.82 -1.23,-1.23 2.694,-0.827 5.646,-1.715 7.755,-3.69 1.865,-1.747 2.266,-4.078 3.233,-6.3 2.143,-4.922 3.85,-9.521 3.917,-14.993 0.132,-10.752 -5.641,-20.049 -14.669,-25.629 -0.928,-0.574 -0.34,-2.212 0.77,-1.828 3.404,1.179 6.152,4.344 8.478,6.945 3.195,3.573 6.223,7.476 8.553,11.675 4.845,8.734 3.239,21.215 -2.828,28.949 -0.508,0.647 -2.559,2.259 -2.597,2.846 -0.065,0.976 1.773,2.141 2.655,2.79 1.822,1.34 3.589,2.645 5.34,4.076 4.716,3.855 10.218,7.001 12.852,12.73 1.098,2.389 1.864,4.906 2.815,7.354 1.469,3.783 3.643,7.262 5.86,10.646 1.991,3.037 4.084,6.006 6.036,9.069 1.76,2.76 3.385,5.727 5.705,8.071 9.781,9.887 26.766,0.456 35.84,11.365 2.76,3.318 3.091,8.566 3.023,12.736 -0.059,3.678 -1.742,6.327 -5.485,7.064 -3.394,0.669 -6.436,2.117 -9.595,3.634 -3.969,1.906 -8.361,4.076 -11.335,7.412 -1.941,2.178 -2.396,3.859 -0.893,6.508 1.166,2.057 2.541,3.939 2.821,6.36 0.168,1.455 -0.326,2.806 -0.17,4.238 0.148,1.366 0.995,2.225 1.26,3.536 0.192,0.947 -0.059,1.385 -0.142,2.288 -0.031,0.344 -0.396,0.64 -0.445,0.978 -0.521,3.632 0.2,2.605 1.431,4.313 0.996,1.383 1.003,2.799 0.003,4.201 -0.978,1.371 -2.991,1.976 -3.55,3.683 -0.514,1.566 0.486,3.109 1.473,4.23 3.435,3.898 8.684,5.763 12.63,9.054 2.523,2.103 1.224,3.98 -0.581,6.023 -0.699,0.792 -1.51,1.478 -1.386,2.599 0.156,1.415 2.001,2.821 3.04,3.717 2.447,2.11 4.875,3.849 6.299,6.839 -0.456,-0.12 -0.912,-0.24 -1.368,-0.359 9.792,-6.773 19.676,-13.789 27.795,-22.57 7.076,-7.652 13.55,-18.067 8.122,-28.429 -0.515,-0.984 0.746,-2.044 1.571,-1.212 1.784,1.799 9.874,14.907 11.566,8.757 2.202,-8.002 -9.907,-12.411 -15.728,-13.393 -0.517,-0.087 -0.852,-0.756 -0.698,-1.23 2.382,-7.339 11.651,-5.719 16.661,-2.117 4.876,3.507 9.922,12.637 7.633,18.736 -1.128,3.005 -3.922,4.746 -6.859,5.69 -1.174,0.378 -2.392,0.617 -3.611,0.799 -0.396,0.059 -1.032,0.183 -1.303,0.167 0.08,0.005 -1.879,-0.087 -1.381,-0.307 -0.37,0.164 -0.871,1.203 -1.105,1.516 -5.376,7.192 -11.308,14.077 -17.863,20.218 -7.115,6.665 -15.54,11.818 -23.129,17.93 0.052,-0.404 0.104,-0.808 0.157,-1.212 5.387,8.634 14.55,15.472 22.834,20.996 0.656,0.438 0.628,1.285 0,1.727 -10.227,7.202 -3.856,21.277 4.748,26.676 4.196,2.633 9.128,4.132 14.058,4.492 4.465,0.326 10.3,0.094 13.967,-2.78 5.793,-4.54 11.174,-17.903 4.24,-23.643 -4.638,-3.839 -3.709,3.835 -2.335,6.397 1.649,3.075 4.737,4.879 8.101,5.493 6.673,1.218 15.263,-1.868 17.97,-8.488 1.047,-2.558 1.066,-5.644 1.145,-8.375 0.069,-2.391 0.62,-8.235 -1.628,-9.88 -2.586,-1.892 -1.184,2.199 -0.713,3.177 0.611,1.272 1.354,2.647 2.279,3.726 3.687,4.3 9.742,3.552 14.091,0.808 9.232,-5.827 9.321,-17.292 5.276,-26.409 -1.095,-2.469 -2.501,-4.848 -4.248,-6.912 -0.906,-1.07 -5.049,-5.666 -6.42,-4.373 0.143,-0.136 2.06,0.03 2.4,-0.034 1.21,-0.229 2.187,-0.865 3.042,-1.727 1.101,-1.109 1.968,-2.606 2.691,-3.974 1.459,-2.757 2.433,-5.81 2.436,-8.952 0.005,-5.12 -2.678,-9.847 -7.124,-12.398 -5.472,-3.138 -11.944,-2.325 -17.433,0.294 -0.493,0.235 -1.07,0.136 -1.368,-0.359 -2.702,-4.488 -6.015,-8.545 -9.478,-12.464 -2.989,-3.384 -6.826,-6.544 -9.406,-10.239 -2.448,-3.505 -0.71,-9.262 -2.442,-13.176 -0.556,-1.255 -1.427,-1.267 -2.863,-1.894 -2.583,-1.129 -5.135,-2.329 -7.647,-3.607 -5.069,-2.578 -9.94,-5.488 -14.655,-8.663 -6.583,-4.433 -15.778,-8.03 -19.515,-15.531 -2.296,-4.607 -3.613,-11.672 -8.334,-14.583 -5.622,-3.466 -12.89,-0.381 -18.828,-2.605 -6.357,-2.382 -10.443,-8.083 -13.181,-14.045 -3.294,-7.171 -5.558,-15.102 -7.335,-22.773 -5.842,-25.225 -3.527,-51.293 -2.018,-76.865 0.064,-1.086 1.673,-1.407 1.964,-0.266 1.784,6.999 0.247,16.089 5.829,21.601 0.373,0.306 0.746,0.612 1.119,0.918 2.541,-0.915 3.183,-1.668 1.926,-2.259 -0.162,-0.161 -0.762,-0.395 -0.9,-0.446 -0.518,-0.192 -1.07,-0.352 -1.628,-0.32 -1.269,0.072 -2.143,0.852 -2.871,1.834 -4.043,5.46 -3.339,15.025 -2.741,21.352 0.183,1.939 2.908,20.164 7.664,17.308 1.723,-1.034 -2.089,-5.172 -3.286,-0.468 -0.418,1.645 -0.288,3.524 -0.202,5.202 0.242,4.688 1.167,9.354 2.308,13.899 1.268,5.046 2.874,10.052 5.032,14.792 1.657,3.642 3.669,7.717 6.832,10.299 1.335,1.09 4.548,2.887 5.1,-0.077 0.625,-3.357 -5.162,-5.677 -5.236,-0.734 -0.058,3.933 5.555,5.792 8.856,5.693 3.429,-0.103 6.664,-1.476 10.131,-0.909 4.787,0.782 7.942,4.612 10.495,8.422 2.468,3.684 5.386,7.436 6.722,11.721 0.515,1.652 1.182,6.794 -2.273,5.767 -2.119,-0.63 -2.441,-4.598 -2.414,-6.324 0.209,-13.853 22.359,3.82 26.405,6.479 7.855,5.16 21.546,10.276 17.096,22.183 -0.262,0.701 -1.453,1.111 -1.828,0.239 -3.057,-7.121 2.189,-12.412 7.459,-16.581 9.773,-7.73 20.186,-14.377 29.066,-23.223 13.902,-13.846 23.593,-31.078 29.274,-49.806 6.761,-22.288 11.857,-44.996 14.745,-68.127 0.772,-6.183 1.382,-12.389 1.733,-18.611 0.322,-5.698 1.481,-12.35 -0.059,-17.911 -2.632,-9.507 -14.447,-12.414 -21.721,-17.469 -0.805,-0.56 -0.526,-1.824 0.505,-1.863 7.112,-0.272 12.877,2.731 17.302,8.225 -0.57,0.236 -1.138,0.472 -1.707,0.707 0.282,-7.523 -7.416,-10.927 -13.37,-13.278 -3.165,-1.249 -6.396,-2.327 -9.549,-3.607 -3.035,-1.23 -5.705,-3.11 -8.693,-4.362 -6.256,-2.62 -10.023,-0.45 -14.367,4.211 -3.552,3.81 -7.372,7.737 -7.835,13.185 -0.79,9.284 -1.253,20.434 3.487,28.78 h -1.727 c 5.203,-6.992 8.308,-15.24 14.105,-21.83 4.587,-5.212 10.007,-10.204 16.677,-12.5 0.177,0.643 0.354,1.286 0.531,1.928 -8.222,2.703 -16.164,7.814 -21.749,14.421 -6.428,7.606 -8.21,17.639 -8.453,27.318 -0.227,9.043 0.783,18.055 0.786,27.093 10e-4,3.956 1.17,7.994 -0.526,11.763 -1.653,3.673 -4.158,7.093 -6.547,10.315 -6.114,8.248 -14.087,17.27 -11.335,28.316 -0.489,-0.2 -0.979,-0.399 -1.469,-0.598 4.582,-2.698 4.21,-11.869 5.127,-16.45 1.595,-7.968 7.721,-14.267 9.419,-22.134 4.03,-18.663 0.712,-38.654 -0.871,-57.406 -0.799,-9.472 -1.04,-18.833 -0.837,-28.329 0.05,-2.354 -0.073,-2.515 -2.165,-3.497 -1.519,-0.712 -3.141,-1.209 -4.769,-1.6 -3.758,-0.9 -7.647,-1.171 -11.5,-1.3 -13.753,-0.458 -27.483,-0.742 -41.241,-1.25 -16.074,-0.592 -34.101,-0.438 -46.423,11.469 -0.666,0.643 -1.625,0.132 -1.707,-0.707 -0.372,-3.785 1.324,-7.379 1.026,-11.137 -0.179,-2.259 -0.675,-4.445 -0.365,-6.726 0.588,-4.324 3.963,-6.502 7.673,-8.201 8.505,-3.894 19.361,-3.366 28.464,-2.822 20.829,1.244 41.779,5.666 61.746,11.632 0.965,0.288 12.483,3.064 10.875,5.367 -0.523,-0.403 -1.047,-0.807 -1.57,-1.211 10.84,-10.313 15.445,-27.137 19.092,-41.148 3.307,-12.704 6.127,-25.985 6.799,-39.134 0.027,-0.54 0.435,-1 1,-1 h 62.396 99.441 22.81 c 1.287,0 1.289,2 0,2 h -62.396 -99.442 -22.809 c 0.333,-0.333 0.666,-0.667 1,-1 -0.697,13.621 -3.622,27.398 -7.1,40.542 -3.719,14.055 -8.496,30.803 -19.377,41.154 -0.789,0.751 -2.245,-0.246 -1.571,-1.212 -0.931,1.334 0.842,0.918 -0.812,0.568 -0.827,-0.176 -1.693,-0.669 -2.496,-0.954 -2.635,-0.934 -5.316,-1.743 -8.001,-2.524 -8.151,-2.368 -16.415,-4.37 -24.725,-6.096 -9.997,-2.077 -20.102,-3.761 -30.279,-4.647 -8.761,-0.762 -17.87,-1.148 -26.547,0.566 -4.238,0.837 -10.778,2.713 -12.036,7.479 -0.721,2.731 0.329,5.368 0.348,8.083 0.025,3.526 -1.494,6.857 -1.144,10.421 -0.569,-0.236 -1.138,-0.472 -1.707,-0.708 11.143,-10.767 26.848,-12.406 41.645,-12.218 15.131,0.193 30.231,1.074 45.358,1.362 6.691,0.127 14.057,0.403 20.105,3.599 0.826,0.437 2.165,0.965 2.546,1.894 0.492,1.2 -0.219,4.388 -0.262,5.647 -0.186,5.396 -0.039,10.796 0.269,16.184 1.202,21.011 5.047,42.109 2.162,63.15 -0.708,5.156 -2.373,9.239 -4.754,13.837 -2.208,4.263 -4.606,8.49 -5.472,13.262 -0.93,5.125 -0.736,13.873 -5.913,16.922 -0.546,0.321 -1.313,0.03 -1.469,-0.598 -2.227,-8.939 1.94,-16.762 7.056,-23.848 2.772,-3.839 5.819,-7.5 8.307,-11.537 1.312,-2.127 2.927,-4.46 3.289,-6.95 0.367,-2.528 -0.275,-5.091 -0.319,-7.621 -0.314,-17.972 -4.643,-39.958 7.134,-55.402 5.813,-7.624 14.683,-13.345 23.754,-16.327 1.228,-0.404 1.741,1.512 0.531,1.928 -6.523,2.246 -11.795,7.349 -16.225,12.481 -5.462,6.327 -8.397,14.259 -13.361,20.931 -0.429,0.577 -1.324,0.709 -1.727,0 -4.296,-7.566 -4.308,-16.879 -3.98,-25.33 0.152,-3.94 0.223,-7.571 2.222,-11.085 2.079,-3.657 5.202,-6.767 8.09,-9.783 5.815,-6.074 12.254,-4.465 18.874,-0.659 5.695,3.273 12.299,4.714 18.226,7.511 5.588,2.637 10.875,6.645 10.622,13.407 -0.03,0.783 -1.129,1.426 -1.708,0.707 -4.106,-5.099 -9.249,-7.893 -15.887,-7.639 0.168,-0.622 0.336,-1.243 0.505,-1.864 6.287,4.37 14.841,6.819 19.749,12.927 2.361,2.938 3.365,6.54 3.565,10.258 0.282,5.242 -0.326,10.775 -0.672,16.019 -1.546,23.402 -5.857,46.816 -11.843,69.472 -5.222,19.761 -11.956,38.979 -24.591,55.313 -8.743,11.302 -19.598,20.299 -31.124,28.612 -5.688,4.102 -18.669,10.983 -14.864,19.845 -0.609,0.079 -1.218,0.159 -1.827,0.239 3.02,-8.083 -3.935,-12.723 -10.065,-16.307 -6.998,-4.092 -13.484,-9.017 -20.726,-12.686 -2.853,-1.444 -8.249,-4.939 -8.763,0.34 -0.09,0.923 0.012,1.93 0.214,2.829 0.396,1.765 1.202,2.81 0.889,0.12 -0.265,-2.284 -1.616,-4.556 -2.886,-6.426 -2.051,-3.019 -3.804,-6.299 -6.149,-9.107 -3.121,-3.735 -6.725,-5.063 -11.536,-4.357 -3.637,0.535 -6.809,1.325 -10.372,-0.171 -4.107,-1.725 -9.046,-7.059 -3.935,-10.916 3.055,-2.306 6.999,0.782 7.445,4.069 0.516,3.8 -3.365,5.237 -6.354,3.778 -3.912,-1.909 -6.456,-6.435 -8.323,-10.15 -2.627,-5.227 -4.52,-10.837 -5.987,-16.49 -0.992,-3.824 -6.673,-23.994 1.118,-24.717 2.77,-0.257 6.16,3.657 3.668,6.002 -2.417,2.275 -5.423,0.096 -6.898,-2.003 -4.765,-6.78 -5.235,-17.416 -4.88,-25.368 0.229,-5.144 1.62,-18.897 10.009,-15.957 1.818,0.638 3.23,1.619 2.862,3.768 -0.382,2.233 -2.624,3.616 -4.739,2.901 -2.853,-0.965 -4.749,-4.646 -5.725,-7.292 -1.974,-5.35 -1.434,-11.248 -2.831,-16.731 0.654,-0.088 1.309,-0.177 1.964,-0.265 -1.354,22.944 -3.426,46.22 0.483,69.034 1.494,8.721 3.887,17.428 6.999,25.72 2.687,7.159 7.091,15.617 15.232,17.529 5.628,1.321 11.893,-0.886 17.263,2.052 4.132,2.261 5.884,7.26 7.638,11.328 1.949,4.52 4.019,7.928 8.026,10.963 3.499,2.65 7.405,4.665 11.084,7.039 4.745,3.061 9.406,6.137 14.411,8.772 2.307,1.214 4.647,2.362 7.017,3.448 1.591,0.728 4.679,1.298 5.708,2.684 1.128,1.519 1.041,4.857 1.305,6.638 0.293,1.98 0.063,5.488 1.003,7.279 0.709,1.35 3.195,3.219 4.386,4.501 1.847,1.988 3.685,3.986 5.475,6.025 3.43,3.908 6.713,7.962 9.399,12.424 -0.456,-0.12 -0.912,-0.239 -1.368,-0.359 6.03,-2.877 13.014,-3.781 19.095,-0.498 4.975,2.686 8.153,7.82 8.449,13.449 0.296,5.623 -2.525,14.171 -7.865,16.896 -1.825,0.931 -5.237,1.385 -6.899,-0.167 -1.013,-0.946 -1.131,-2.339 0.107,-3.189 4.233,-2.908 10.425,5.259 12.267,8.135 3.668,5.725 5.765,12.958 4.957,19.763 -0.75,6.318 -4.637,11.662 -10.358,14.462 -5.023,2.457 -11.309,2.286 -15.069,-2.29 -1.554,-1.891 -5.446,-7.605 -2.861,-9.935 3.527,-3.179 5.892,3.023 6.25,5.367 1.462,9.555 -0.142,19.799 -9.939,23.88 -8.717,3.632 -20.91,0.954 -22.176,-9.855 -0.394,-3.36 1.008,-7.121 5.012,-5.359 4.129,1.817 5.773,6.657 5.601,10.831 -0.269,6.511 -3.63,14.783 -9.569,18.106 -6.297,3.525 -15.486,2.729 -22.059,0.548 -6.934,-2.301 -13.259,-6.907 -16.094,-13.814 -2.91,-7.089 -1.909,-14.859 4.608,-19.448 v 1.727 c -8.61,-5.741 -17.969,-12.765 -23.552,-21.713 -0.213,-0.342 -0.178,-0.944 0.156,-1.212 7.99,-6.435 16.853,-11.871 24.247,-18.995 4.341,-4.182 8.367,-8.69 12.185,-13.351 1.694,-2.067 4.26,-4.449 5.358,-6.927 0.144,-0.326 0.537,-0.474 0.863,-0.495 3.953,-0.251 9.705,-0.837 11.832,-4.826 1.79,-3.357 0.042,-7.56 -1.615,-10.594 -2.014,-3.688 -4.326,-6.774 -8.363,-8.3 -3.68,-1.392 -8.742,-1.714 -10.208,2.802 -0.233,-0.41 -0.466,-0.82 -0.698,-1.23 7.075,1.192 21.196,7.453 16.733,17.087 -3.687,7.96 -12.312,-6.885 -14.517,-9.109 0.523,-0.404 1.047,-0.808 1.57,-1.212 5.156,9.842 0.755,19.816 -5.764,27.791 -8.512,10.413 -19.896,18.354 -30.871,25.945 -0.418,0.289 -1.148,0.103 -1.368,-0.359 -2.015,-4.229 -8.627,-6.39 -9.624,-10.981 -0.247,-1.136 0.106,-2.131 0.715,-3.088 0.597,-0.938 2.548,-2.158 2.693,-3.241 0.17,-1.268 -3.32,-3.199 -4.29,-3.846 -2.011,-1.343 -4.114,-2.545 -6.063,-3.98 -2.516,-1.853 -5.635,-4.492 -5.272,-7.98 0.213,-2.046 1.493,-2.634 2.724,-4.044 1.367,-1.567 1.209,-2.476 0.158,-4.178 -0.544,-0.881 -1.131,-1.404 -1.22,-2.528 -0.078,-0.974 0.249,-1.125 0.402,-2.015 0.373,-2.175 0.115,-3.403 -0.558,-5.349 -0.196,-0.566 -0.279,-1.087 -0.279,-1.664 0.001,-0.968 0.551,-1.837 0.54,-2.896 -0.014,-1.343 -0.486,-2.575 -1.098,-3.75 -1.822,-3.501 -4.068,-5.69 -1.776,-9.535 1.872,-3.143 5.327,-5.341 8.412,-7.128 3.484,-2.019 7.175,-3.617 10.859,-5.227 1.51,-0.659 2.354,-0.802 4.012,-1.12 3.247,-0.622 4.091,-2.848 4.006,-5.875 -0.066,-2.369 -0.245,-5.124 -0.804,-7.422 -0.864,-3.549 -4.309,-6.08 -7.566,-7.295 -6.224,-2.32 -13.398,-0.688 -19.85,-2.044 -5.71,-1.201 -9.769,-4.21 -13.045,-8.952 -3.945,-5.711 -7.889,-11.604 -11.443,-17.566 -3.098,-5.198 -4.277,-11.279 -7.405,-16.38 -1.791,-2.92 -4.832,-5.059 -7.506,-7.118 -2.311,-1.78 -4.52,-3.727 -6.885,-5.428 -1.717,-1.235 -4.014,-2.435 -5.235,-4.225 -1.191,-1.749 -0.54,-2.289 0.826,-3.676 5.582,-5.666 7.533,-13.424 6.711,-21.195 -0.596,-5.635 -3.338,-9.872 -6.707,-14.305 -2.796,-3.678 -6.762,-9.392 -11.344,-10.979 0.257,-0.609 0.514,-1.218 0.771,-1.827 9.895,6.115 16.132,16.509 15.634,28.296 -0.265,6.277 -2.809,11.441 -4.888,17.21 -1.881,5.218 -6.45,7.224 -11.46,8.761 -0.774,0.238 -1.372,-0.516 -1.23,-1.23 1.023,-5.136 -2.698,-9.293 -5.504,-13.157 -1.744,-2.401 -3.167,-4.994 -4.799,-7.468 -2.973,-4.506 -9.373,-14.747 -15.987,-12.558 0.079,-0.609 0.159,-1.219 0.238,-1.828 8.565,5.926 15.415,14.289 20.298,23.445 2.001,3.751 5.275,9.197 4.534,13.6 -0.482,2.865 -2.456,5.393 -3.77,7.948 -3.153,6.132 -6.11,12.368 -9.093,18.583 -0.92,1.915 -2.624,4.286 -3.051,6.378 -0.253,1.24 -0.012,0.051 0.137,0.899 0.347,1.961 0.816,3.534 0.461,5.573 -0.715,4.109 -3.336,7.697 -6.211,10.603 -3.174,3.21 -9.092,5.307 -10.217,9.866 -0.971,3.93 0.122,8.71 0.772,12.626 0.511,3.074 1.527,6.763 0.307,9.789 -1.498,3.718 -6.093,3.114 -9.382,3.209 -6.55,0.19 -13.106,0.238 -19.659,0.289 -7.596,0.058 -15.193,0.086 -22.789,0.095 -7.469,0.01 -16.886,-0.913 -20.422,7.292 -0.287,-0.502 -0.575,-1.003 -0.863,-1.505 6.385,0.286 12.831,0.74 19.223,0.55 1.294,-0.039 1.277,1.921 0,2 -4.437,0.271 -8.121,5.894 -4.719,9.717 0.716,0.806 1.766,1.341 2.852,1.365 0.523,0.107 1.018,0.004 1.486,-0.307 0.764,-0.039 1.264,-0.414 1.5,-1.127 0.572,-1.128 0.698,-1.036 0.376,0.278 -0.003,0.21 -0.007,0.419 -0.01,0.629 0.062,1.999 1.01,3.867 2.675,5.001 3.203,2.18 6.957,0.653 7.002,-3.367 0.003,-0.201 -0.102,-2.29 -0.262,-2.294 0.356,0.009 0.57,1.296 0.685,1.52 0.637,1.239 1.249,2.503 2.783,2.652 3.671,0.355 2.774,-3.9 1.317,-5.634 0.569,-0.235 1.138,-0.471 1.707,-0.707 -0.067,3.714 3.399,11.132 8.227,8.713 1.711,-0.857 6.293,-7.739 3.033,-8.854 0.422,-0.321 0.844,-0.643 1.265,-0.964 -0.33,2.61 0.143,6.314 3.623,5.996 3.421,-0.313 2.878,-3.328 0.999,-5.218 0.569,-0.236 1.138,-0.472 1.707,-0.707 -0.228,3.896 7.422,7.432 9.665,3.536 0.961,-1.67 -0.347,-2.302 -0.291,-3.837 -0.061,-0.213 -0.122,-0.425 -0.182,-0.638 0.474,0.628 1.057,1.137 1.749,1.527 1.455,0.731 3.369,0.637 4.506,-0.632 1.656,-1.847 0.381,-4.037 -0.943,-5.57 -0.551,-0.638 -0.203,-1.703 0.708,-1.707 8.95,-0.033 17.902,-0.067 26.853,-0.101 -0.334,0.333 -0.667,0.667 -1,1 -0.691,-9.061 -10.18,-9.851 -17.405,-10.119 -4.165,-0.155 -11.776,0.495 -13.365,-4.386 -0.74,-2.274 -0.786,-4.857 -1.212,-7.206 -0.655,-3.623 -1.421,-7.231 -2.415,-10.778 -0.195,-0.694 -0.677,-3.814 -1.793,-3.959 -0.897,-0.117 -3.653,2.577 -4.166,3.109 -2.088,2.164 -2.764,4.88 -2.772,7.821 -0.011,3.768 1.032,8.071 -0.611,11.653 -0.925,2.016 -5.23,3.044 -7.2,1.928 -1.564,-0.887 -2.1,-3.698 -2.335,-5.296 -0.447,-3.04 -0.657,-6.397 -0.783,-9.458 -0.203,-4.913 3.361,-9.336 5.144,-13.689 0.557,0.324 1.114,0.648 1.671,0.973 -3.129,2.856 -5.189,7.804 -7.212,11.457 -0.874,1.579 -2.016,3.252 -2.589,4.973 -1.061,3.189 0.421,6.536 -0.031,9.756 -0.423,3.019 -5.02,3.126 -7.347,2.129 -2.732,-1.171 -2.963,-6.002 -3.644,-8.5 0.655,-0.089 1.31,-0.177 1.964,-0.266 0.063,2.874 0.156,5.755 0.103,8.629 -0.007,0.394 -0.302,0.9 -0.734,0.964 -2.322,0.344 -4.596,0.818 -6.944,0.962 -0.652,0.039 -1.132,-0.671 -0.964,-1.266 1.677,-5.936 7.345,-9.884 8.5,-15.909 1.003,-5.232 3.55,-8.848 7.114,-12.745 6.767,-7.399 15.156,-13.037 22.418,-19.906 6.665,-6.304 12.917,-14.443 13.58,-23.947 0.48,-6.873 0.142,-13.88 0.121,-20.766 -0.037,-12.1 -4.77,-26.674 4.212,-36.708 2.599,-2.903 5.745,-5.306 8.884,-7.591 2.482,-1.807 4.833,-3.345 6.76,-5.782 1.642,-2.077 3.283,-4.203 5.238,-6 7.92,-7.281 16.544,-1.68 25.188,1.185 5.702,1.891 11.596,3.679 16.708,6.924 4.86,3.084 7.757,6.464 7.591,12.403 -0.088,3.171 -0.821,6.279 -0.983,9.443 -0.202,3.939 -0.163,7.863 -0.512,11.801 -0.737,8.298 -2.156,16.516 -3.507,24.731 -0.171,1.038 -1.655,0.859 -1.929,0 -4.366,-13.675 -1.869,-28.09 0.907,-41.821 3.029,-14.983 5.889,-29.982 8.562,-45.034 1.37,-7.709 2.635,-15.597 4.966,-23.082 1.175,-3.772 2.497,-7.483 3.181,-11.388 0.772,-4.404 0.207,-8.391 -0.211,-12.786 -0.748,-7.891 0.346,-15.41 -2.344,-23.057 -1.157,-3.289 -2.556,-6.505 -3.436,-9.886 -0.92,-3.538 -1.039,-7.295 -1.401,-10.921 C 383.836,38.123 382.357,19.59 382.23,1 c 0.333,0.333 0.666,0.667 1,1 H 345.097 253.528 142.766 47.053 15.693 C 10.853,2 5.437,2.686 0.632,2 0.43,1.971 0.205,2 0,2 -1.287,2 -1.289,0 0,0" /></g></g></g></g></svg>