<?xml version="1.0"?>
<svg width="1000" height="666.66669" xmlns="http://www.w3.org/2000/svg" xmlns:svg="http://www.w3.org/2000/svg" version="1.1" xml:space="preserve">
 <metadata id="metadata8">image/svg+xml</metadata>
 <defs id="defs6">
  <clipPath clipPathUnits="userSpaceOnUse" id="clipPath20">
   <path d="m0,500l750,0l0,-500l-750,0l0,500z" id="path18"/>
  </clipPath>
 </defs>
 <g class="layer" display="inline">
  <title>Layer 1</title>
  <g id="g10" transform="translate(1 0) translate(1 0) translate(1 0) translate(1 0) translate(1 0) translate(1 0) translate(1 0) matrix(1.40285 0 0 -1.33333 -39.0678 666.667)">
   <g id="g14">
    <g clip-path="url(#clipPath20)" id="g16">
     <g id="g22" transform="translate(17.0784,23.3598)">
      <path d="m0,0l38.13,0l91.57,0l110.76,0l95.72,0l31.36,0c4.87,0 10.21,-0.63 15.06,0c0.2,0.03 0.42,0 0.63,0c0.54,0 1,0.46 1,1c0.11,16.27 1.25,32.49 2.78,48.68c0.77,8.15 1.27,16.01 4.15,23.73c1.21,3.22 2.48,6.44 3.03,9.85c0.58,3.51 0.44,7.11 0.45,10.65c0.01,7.18 1.59,14.01 0.12,21.15c-0.76,3.68 -2.05,7.18 -3.15,10.75c-1.24,4.07 -2.05,8.31 -2.89,12.47c-3.01,15.02 -5.52,30.15 -8.43,45.18c-3.21,16.53 -8.21,33.97 -2.9,50.59l-1.93,0c1.21,-7.36 2.48,-14.72 3.24,-22.14c0.6,-5.96 0.37,-11.98 1.15,-17.91c0.36,-2.8 0.9,-5.79 0.37,-8.6c-0.65,-3.48 -3.59,-5.67 -6.43,-7.46c-4.83,-3.06 -10.34,-4.78 -15.73,-6.56c-4.83,-1.6 -9.92,-4.54 -14.98,-5.07c-5.06,-0.53 -8.58,2.67 -11.64,6.28c-1.44,1.7 -2.66,3.76 -4.25,5.31c-1.68,1.65 -4.13,2.85 -6.03,4.26c-3.15,2.34 -6.36,4.86 -8.78,7.99c-3.91,5.06 -3.93,11.14 -3.56,17.26c0.38,6.38 0.98,12.69 0.99,19.09c0.02,6.25 0.37,12.66 -0.14,18.89c-0.63,7.67 -4.81,14.8 -9.8,20.45c-6.82,7.73 -15.5,13.49 -22.96,20.53c-4.21,3.97 -9.18,8.71 -10.22,14.58c-1.18,6.68 -6.88,10.63 -8.69,17.03c-0.32,-0.42 -0.64,-0.84 -0.96,-1.26c2.16,-0.13 4.27,-0.58 6.41,-0.89c-0.24,0.32 -0.49,0.64 -0.73,0.96c0.05,-2.87 -0.04,-5.75 -0.11,-8.63c-0.02,-1.13 1.67,-1.35 1.97,-0.26c0.73,2.68 0.75,7.27 4.11,7.43c0.55,0.03 2.46,0.13 2.88,-0.32c0.37,-0.39 0.01,-2.05 -0.02,-2.75c-0.14,-2.51 -0.63,-5.29 0.18,-7.73c1.04,-3.09 3.11,-6.08 4.74,-8.88c1.6,-2.75 3.19,-6.26 5.59,-8.45c0.66,-0.61 2.08,-0.02 1.67,0.97c-1.65,4.04 -5.16,8.35 -5.11,12.85c0.03,2.46 0.44,5.05 0.61,7.53c0.21,2.9 0.89,7.44 4.94,5.44c3.26,-1.61 1.27,-9.65 1.44,-12.65c0.22,-3.93 1.9,-7.2 5.07,-9.57c4.1,-3.08 5.71,-3.04 7.21,2.01c1.79,5.99 2.42,12.12 3.73,18.19c1.17,5.47 13.09,3.82 17.2,4.3c7.14,0.84 13.3,3.9 13.89,11.75c0.05,0.54 -0.49,1 -1,1c-8.95,0.04 -17.9,0.07 -26.85,0.1c0.24,-0.57 0.47,-1.14 0.71,-1.7c2.35,2.72 3.56,6.82 -0.01,9.16c-3.33,2.19 -7.54,0.11 -9.21,-3.16c-0.15,-0.3 -0.21,-0.72 0,-1.01c2.97,-4.17 7.76,4.81 3.34,8.03c-4.21,3.09 -12.36,-0.55 -12.04,-6c0.05,-0.84 1.07,-1.35 1.71,-0.7c2.76,2.78 3.21,7.3 -1.35,8.46c-5.04,1.29 -7.22,-3.63 -6.69,-7.83c0.08,-0.59 0.58,-1.19 1.27,-0.96c5.41,1.85 1.03,10.16 -2.15,12.24c-6.25,4.07 -11.74,-4.84 -11.64,-10.17c0.01,-0.81 1.12,-1.4 1.7,-0.71c1.58,1.88 2.81,4.35 1.5,6.74c-0.98,1.77 -3.14,2.69 -5.1,2.21c-2.42,-0.59 -4.33,-3.53 -4.28,-5.97c0.06,-2.44 2.46,-3.53 3.51,-1.05c1.92,4.53 -0.97,10.13 -6.13,9.59c-5.46,-0.58 -7.88,-6.01 -6.73,-10.9c0.07,-0.33 0.37,-0.62 0.69,-0.7c3.82,-0.95 3.13,4.01 0.72,5.49c-2.46,1.53 -6.03,0.52 -7.74,-1.71c-4.03,-5.28 0.42,-12.35 6.46,-12.72l0,2c-6.39,0.19 -12.83,-0.26 -19.22,-0.55c-0.82,-0.04 -1.16,-0.81 -0.86,-1.5c4.77,-11.08 20.92,-8.27 30.74,-8.3c12.38,-0.05 24.82,0.14 37.19,-0.49c2.52,-0.13 4.32,-0.58 4.55,-3.7c0.24,-3.3 -0.79,-6.77 -1.21,-10.04c-0.46,-3.61 -1.25,-7.52 -0.08,-11.08c1.22,-3.72 4.41,-4.86 7.27,-7.09c3.84,-2.99 7.89,-7.18 8.86,-12.14c0.53,-2.71 -1.29,-4.88 -0.37,-7.29c1.99,-5.23 4.91,-10.28 7.36,-15.31c1.51,-3.11 3.02,-6.21 4.59,-9.29c0.48,-0.95 0.97,-1.89 1.48,-2.81c1.92,-3.5 2.82,-5.8 1.41,-9.66c-4.33,-11.85 -12.59,-23.07 -22.99,-30.26c-0.72,-0.5 -0.61,-1.55 0.24,-1.83c7.4,-2.45 13.95,7.18 17.44,12.27c2.33,3.41 4.36,6.96 6.8,10.3c2.88,3.93 5.52,8.02 4.51,13.07c-0.41,-0.41 -0.82,-0.82 -1.23,-1.23c2.69,-0.82 5.65,-1.71 7.75,-3.69c1.87,-1.74 2.27,-4.07 3.24,-6.3c2.14,-4.92 3.85,-9.52 3.91,-14.99c0.14,-10.75 -5.64,-20.05 -14.66,-25.63c-0.93,-0.57 -0.34,-2.21 0.77,-1.83c3.4,1.18 6.15,4.35 8.47,6.95c3.2,3.57 6.23,7.48 8.56,11.67c4.84,8.74 3.24,21.22 -2.83,28.95c-0.51,0.65 -2.56,2.26 -2.6,2.85c-0.06,0.98 1.77,2.14 2.66,2.79c1.82,1.34 3.59,2.64 5.34,4.08c4.71,3.85 10.21,7 12.85,12.73c1.1,2.38 1.86,4.9 2.81,7.35c1.47,3.78 3.65,7.26 5.86,10.65c1.99,3.03 4.09,6 6.04,9.06c1.76,2.76 3.38,5.73 5.7,8.08c9.79,9.88 26.77,0.45 35.84,11.36c2.76,3.32 3.1,8.57 3.03,12.74c-0.06,3.67 -1.74,6.32 -5.49,7.06c-3.39,0.67 -6.43,2.12 -9.59,3.63c-3.97,1.91 -8.36,4.08 -11.34,7.42c-1.94,2.17 -2.39,3.86 -0.89,6.5c1.17,2.06 2.54,3.94 2.82,6.36c0.17,1.46 -0.33,2.81 -0.17,4.24c0.15,1.37 1,2.23 1.26,3.54c0.19,0.95 -0.06,1.38 -0.14,2.29c-0.03,0.34 -0.4,0.64 -0.45,0.97c-0.52,3.64 0.2,2.61 1.43,4.32c1,1.38 1.01,2.8 0.01,4.2c-0.98,1.37 -2.99,1.97 -3.55,3.68c-0.52,1.57 0.48,3.11 1.47,4.23c3.44,3.9 8.68,5.76 12.63,9.06c2.52,2.1 1.22,3.98 -0.58,6.02c-0.7,0.79 -1.51,1.48 -1.39,2.6c0.16,1.41 2,2.82 3.04,3.71c2.45,2.11 4.88,3.85 6.3,6.84c-0.45,-0.12 -0.91,-0.24 -1.37,-0.36c9.8,-6.77 19.68,-13.78 27.8,-22.57c7.08,-7.65 13.55,-18.06 8.12,-28.42c-0.51,-0.99 0.75,-2.05 1.57,-1.22c1.79,1.8 9.88,14.91 11.57,8.76c2.2,-8 -9.91,-12.41 -15.73,-13.39c-0.52,-0.09 -0.85,-0.76 -0.7,-1.23c2.38,-7.34 11.65,-5.72 16.66,-2.12c4.88,3.51 9.93,12.64 7.64,18.74c-1.13,3 -3.93,4.74 -6.86,5.69c-1.18,0.37 -2.39,0.61 -3.61,0.8c-0.4,0.05 -1.04,0.18 -1.31,0.16c0.08,0.01 -1.88,-0.08 -1.38,-0.3c-0.37,0.16 -0.87,1.2 -1.1,1.51c-5.38,7.19 -11.31,14.08 -17.87,20.22c-7.11,6.66 -15.54,11.82 -23.12,17.93c0.05,-0.4 0.1,-0.81 0.15,-1.21c5.39,8.63 14.55,15.47 22.84,20.99c0.65,0.44 0.62,1.29 0,1.73c-10.23,7.2 -3.86,21.28 4.74,26.68c4.2,2.63 9.13,4.13 14.06,4.49c4.47,0.32 10.3,0.09 13.97,-2.78c5.79,-4.54 11.17,-17.9 4.24,-23.64c-4.64,-3.84 -3.71,3.83 -2.34,6.39c1.65,3.08 4.74,4.88 8.11,5.5c6.67,1.21 15.26,-1.87 17.97,-8.49c1.04,-2.56 1.06,-5.65 1.14,-8.38c0.07,-2.39 0.62,-8.23 -1.63,-9.88c-2.58,-1.89 -1.18,2.2 -0.71,3.18c0.61,1.27 1.35,2.65 2.28,3.73c3.69,4.3 9.74,3.55 14.09,0.8c9.23,-5.82 9.32,-17.29 5.28,-26.41c-1.1,-2.46 -2.51,-4.84 -4.25,-6.91c-0.91,-1.07 -5.05,-5.66 -6.42,-4.37c0.14,-0.14 2.06,0.03 2.4,-0.03c1.21,-0.23 2.18,-0.87 3.04,-1.73c1.1,-1.11 1.97,-2.61 2.69,-3.98c1.46,-2.75 2.43,-5.81 2.44,-8.95c0,-5.12 -2.68,-9.84 -7.13,-12.4c-5.47,-3.13 -11.94,-2.32 -17.43,0.3c-0.49,0.23 -1.07,0.13 -1.37,-0.36c-2.7,-4.49 -6.01,-8.55 -9.48,-12.46c-2.99,-3.39 -6.82,-6.55 -9.4,-10.24c-2.45,-3.51 -0.71,-9.27 -2.44,-13.18c-0.56,-1.25 -1.43,-1.27 -2.87,-1.89c-2.58,-1.13 -5.13,-2.33 -7.64,-3.61c-5.07,-2.58 -9.94,-5.49 -14.66,-8.66c-6.58,-4.44 -15.78,-8.03 -19.51,-15.53c-2.3,-4.61 -3.62,-11.68 -8.34,-14.59c-5.62,-3.46 -12.89,-0.38 -18.83,-2.6c-6.35,-2.38 -10.44,-8.09 -13.18,-14.05c-3.29,-7.17 -5.56,-15.1 -7.33,-22.77c-5.84,-25.23 -3.53,-51.29 -2.02,-76.87c0.06,-1.08 1.67,-1.4 1.96,-0.26c1.79,7 0.25,16.09 5.83,21.6c0.38,0.31 0.75,0.61 1.12,0.92c2.54,-0.92 3.18,-1.67 1.93,-2.26c-0.16,-0.16 -0.76,-0.4 -0.9,-0.45c-0.52,-0.19 -1.07,-0.35 -1.63,-0.32c-1.27,0.07 -2.14,0.85 -2.87,1.84c-4.04,5.46 -3.34,15.02 -2.74,21.35c0.18,1.94 2.91,20.16 7.66,17.31c1.73,-1.04 -2.09,-5.18 -3.28,-0.47c-0.42,1.64 -0.29,3.52 -0.21,5.2c0.25,4.69 1.17,9.35 2.31,13.9c1.27,5.05 2.88,10.05 5.03,14.79c1.66,3.64 3.67,7.72 6.84,10.3c1.33,1.09 4.54,2.89 5.1,-0.08c0.62,-3.35 -5.17,-5.67 -5.24,-0.73c-0.06,3.93 5.56,5.79 8.86,5.69c3.42,-0.1 6.66,-1.47 10.13,-0.91c4.78,0.79 7.94,4.62 10.49,8.43c2.47,3.68 5.39,7.43 6.72,11.72c0.52,1.65 1.19,6.79 -2.27,5.76c-2.12,-0.63 -2.44,-4.59 -2.41,-6.32c0.21,-13.85 22.36,3.82 26.4,6.48c7.86,5.16 21.55,10.27 17.1,22.18c-0.26,0.7 -1.45,1.11 -1.83,0.24c-3.06,-7.12 2.19,-12.41 7.46,-16.58c9.77,-7.73 20.18,-14.38 29.06,-23.22c13.91,-13.85 23.6,-31.08 29.28,-49.81c6.76,-22.29 11.86,-45 14.74,-68.13c0.78,-6.18 1.39,-12.39 1.74,-18.61c0.32,-5.7 1.48,-12.35 -0.06,-17.91c-2.63,-9.51 -14.45,-12.41 -21.72,-17.47c-0.81,-0.56 -0.53,-1.82 0.5,-1.86c7.11,-0.27 12.88,2.73 17.3,8.22c-0.57,0.24 -1.13,0.48 -1.7,0.71c0.28,-7.52 -7.42,-10.93 -13.37,-13.28c-3.17,-1.25 -6.4,-2.32 -9.55,-3.6c-3.04,-1.23 -5.71,-3.11 -8.69,-4.37c-6.26,-2.62 -10.03,-0.45 -14.37,4.22c-3.55,3.81 -7.37,7.73 -7.84,13.18c-0.79,9.28 -1.25,20.43 3.49,28.78l-1.73,0c5.21,-6.99 8.31,-15.24 14.11,-21.83c4.59,-5.21 10.01,-10.2 16.68,-12.5c0.17,0.64 0.35,1.29 0.53,1.93c-8.23,2.7 -16.17,7.81 -21.75,14.42c-6.43,7.61 -8.21,17.64 -8.46,27.32c-0.22,9.04 0.79,18.05 0.79,27.09c0,3.96 1.17,7.99 -0.53,11.76c-1.65,3.68 -4.15,7.1 -6.54,10.32c-6.12,8.25 -14.09,17.27 -11.34,28.31c-0.49,-0.2 -0.98,-0.39 -1.47,-0.59c4.59,-2.7 4.21,-11.87 5.13,-16.45c1.6,-7.97 7.72,-14.27 9.42,-22.14c4.03,-18.66 0.71,-38.65 -0.87,-57.4c-0.8,-9.48 -1.04,-18.84 -0.84,-28.33c0.05,-2.36 -0.07,-2.52 -2.16,-3.5c-1.52,-0.71 -3.14,-1.21 -4.77,-1.6c-3.76,-0.9 -7.65,-1.17 -11.5,-1.3c-13.76,-0.46 -27.49,-0.74 -41.24,-1.25c-16.08,-0.59 -34.1,-0.44 -46.43,11.47c-0.66,0.64 -1.62,0.13 -1.7,-0.71c-0.38,-3.78 1.32,-7.38 1.02,-11.13c-0.18,-2.26 -0.67,-4.45 -0.36,-6.73c0.59,-4.32 3.96,-6.5 7.67,-8.2c8.51,-3.9 19.36,-3.37 28.46,-2.82c20.83,1.24 41.78,5.66 61.75,11.63c0.97,0.29 12.48,3.06 10.88,5.37c-0.53,-0.41 -1.05,-0.81 -1.57,-1.22c10.84,-10.31 15.44,-27.13 19.09,-41.14c3.3,-12.71 6.12,-25.99 6.8,-39.14c0.02,-0.54 0.43,-1 1,-1l62.39,0l99.44,0l22.81,0c1.29,0 1.29,2 0,2l-62.39,0l-99.44,0l-22.81,0c0.33,-0.33 0.66,-0.66 1,-1c-0.7,13.62 -3.63,27.4 -7.1,40.54c-3.72,14.06 -8.5,30.81 -19.38,41.16c-0.79,0.75 -2.25,-0.25 -1.57,-1.21c-0.93,1.33 0.84,0.91 -0.81,0.56c-0.83,-0.17 -1.7,-0.66 -2.5,-0.95c-2.63,-0.93 -5.32,-1.74 -8,-2.52c-8.15,-2.37 -16.42,-4.37 -24.73,-6.1c-9.99,-2.08 -20.1,-3.76 -30.27,-4.65c-8.77,-0.76 -17.87,-1.14 -26.55,0.57c-4.24,0.84 -10.78,2.71 -12.04,7.48c-0.72,2.73 0.33,5.37 0.35,8.08c0.03,3.53 -1.49,6.86 -1.14,10.42c-0.57,-0.23 -1.14,-0.47 -1.71,-0.71c11.14,-10.76 26.85,-12.4 41.64,-12.21c15.14,0.19 30.24,1.07 45.36,1.36c6.69,0.13 14.06,0.4 20.11,3.6c0.82,0.43 2.16,0.96 2.54,1.89c0.5,1.2 -0.22,4.39 -0.26,5.65c-0.18,5.39 -0.04,10.79 0.27,16.18c1.2,21.01 5.05,42.11 2.16,63.15c-0.71,5.16 -2.37,9.24 -4.75,13.84c-2.21,4.26 -4.61,8.49 -5.47,13.26c-0.93,5.13 -0.74,13.87 -5.92,16.92c-0.54,0.32 -1.31,0.03 -1.47,-0.59c-2.22,-8.94 1.94,-16.77 7.06,-23.85c2.77,-3.84 5.82,-7.5 8.31,-11.54c1.31,-2.13 2.92,-4.46 3.29,-6.95c0.36,-2.53 -0.28,-5.09 -0.32,-7.62c-0.32,-17.97 -4.65,-39.96 7.13,-55.4c5.81,-7.63 14.68,-13.35 23.76,-16.33c1.22,-0.4 1.74,1.51 0.53,1.93c-6.53,2.24 -11.8,7.35 -16.23,12.48c-5.46,6.33 -8.4,14.26 -13.36,20.93c-0.43,0.58 -1.32,0.71 -1.73,0c-4.29,-7.57 -4.3,-16.88 -3.98,-25.33c0.15,-3.94 0.23,-7.57 2.22,-11.08c2.08,-3.66 5.21,-6.77 8.1,-9.79c5.81,-6.07 12.25,-4.46 18.87,-0.66c5.69,3.28 12.3,4.72 18.23,7.51c5.58,2.64 10.87,6.65 10.62,13.41c-0.03,0.78 -1.13,1.43 -1.71,0.71c-4.11,-5.1 -9.25,-7.89 -15.89,-7.64c0.17,-0.62 0.34,-1.24 0.51,-1.86c6.28,4.37 14.84,6.81 19.75,12.92c2.36,2.94 3.36,6.54 3.56,10.26c0.28,5.24 -0.32,10.78 -0.67,16.02c-1.55,23.4 -5.86,46.82 -11.84,69.47c-5.23,19.76 -11.96,38.98 -24.59,55.31c-8.75,11.31 -19.6,20.3 -31.13,28.62c-5.69,4.1 -18.67,10.98 -14.86,19.84c-0.61,0.08 -1.22,0.16 -1.83,0.24c3.02,-8.08 -3.93,-12.72 -10.06,-16.31c-7,-4.09 -13.49,-9.01 -20.73,-12.68c-2.85,-1.45 -8.25,-4.94 -8.76,0.34c-0.09,0.92 0.01,1.93 0.21,2.83c0.4,1.76 1.2,2.81 0.89,0.12c-0.27,-2.29 -1.62,-4.56 -2.89,-6.43c-2.05,-3.02 -3.8,-6.3 -6.15,-9.11c-3.12,-3.73 -6.72,-5.06 -11.53,-4.35c-3.64,0.53 -6.81,1.32 -10.37,-0.17c-4.11,-1.73 -9.05,-7.06 -3.94,-10.92c3.06,-2.31 7,0.78 7.45,4.07c0.51,3.8 -3.37,5.24 -6.36,3.78c-3.91,-1.91 -6.45,-6.44 -8.32,-10.15c-2.63,-5.23 -4.52,-10.84 -5.99,-16.49c-0.99,-3.83 -6.67,-24 1.12,-24.72c2.77,-0.26 6.16,3.66 3.67,6c-2.42,2.28 -5.42,0.1 -6.9,-2c-4.76,-6.78 -5.23,-17.42 -4.88,-25.37c0.23,-5.14 1.62,-18.9 10.01,-15.96c1.82,0.64 3.23,1.62 2.86,3.77c-0.38,2.23 -2.62,3.62 -4.74,2.9c-2.85,-0.96 -4.75,-4.64 -5.72,-7.29c-1.98,-5.35 -1.44,-11.25 -2.83,-16.73c0.65,-0.09 1.31,-0.18 1.96,-0.27c-1.35,22.95 -3.43,46.22 0.48,69.04c1.5,8.72 3.89,17.43 7,25.72c2.69,7.16 7.09,15.62 15.23,17.53c5.63,1.32 11.9,-0.89 17.27,2.05c4.13,2.26 5.88,7.26 7.64,11.33c1.94,4.52 4.01,7.93 8.02,10.96c3.5,2.65 7.41,4.67 11.09,7.04c4.74,3.06 9.4,6.14 14.41,8.77c2.3,1.22 4.64,2.36 7.01,3.45c1.59,0.73 4.68,1.3 5.71,2.68c1.13,1.52 1.04,4.86 1.31,6.64c0.29,1.98 0.06,5.49 1,7.28c0.71,1.35 3.19,3.22 4.39,4.5c1.84,1.99 3.68,3.99 5.47,6.03c3.43,3.9 6.71,7.96 9.4,12.42c-0.46,-0.12 -0.91,-0.24 -1.37,-0.36c6.03,-2.88 13.02,-3.78 19.1,-0.5c4.97,2.69 8.15,7.82 8.45,13.45c0.29,5.63 -2.53,14.17 -7.87,16.9c-1.82,0.93 -5.24,1.38 -6.9,-0.17c-1.01,-0.94 -1.13,-2.34 0.11,-3.19c4.23,-2.91 10.42,5.26 12.27,8.14c3.66,5.72 5.76,12.96 4.95,19.76c-0.75,6.32 -4.63,11.66 -10.36,14.46c-5.02,2.46 -11.3,2.29 -15.06,-2.29c-1.56,-1.89 -5.45,-7.6 -2.87,-9.93c3.53,-3.18 5.9,3.02 6.25,5.36c1.47,9.56 -0.14,19.8 -9.93,23.88c-8.72,3.64 -20.91,0.96 -22.18,-9.85c-0.39,-3.36 1.01,-7.12 5.01,-5.36c4.13,1.82 5.77,6.66 5.6,10.83c-0.27,6.51 -3.63,14.78 -9.57,18.11c-6.29,3.52 -15.48,2.73 -22.06,0.55c-6.93,-2.31 -13.25,-6.91 -16.09,-13.82c-2.91,-7.09 -1.91,-14.86 4.61,-19.45l0,1.73c-8.61,-5.74 -17.97,-12.76 -23.55,-21.71c-0.22,-0.34 -0.18,-0.95 0.15,-1.21c7.99,-6.44 16.86,-11.88 24.25,-19c4.34,-4.18 8.37,-8.69 12.18,-13.35c1.7,-2.07 4.26,-4.45 5.36,-6.93c0.15,-0.32 0.54,-0.47 0.87,-0.49c3.95,-0.25 9.7,-0.84 11.83,-4.83c1.79,-3.36 0.04,-7.56 -1.62,-10.59c-2.01,-3.69 -4.32,-6.78 -8.36,-8.3c-3.68,-1.39 -8.74,-1.72 -10.21,2.8c-0.23,-0.41 -0.46,-0.82 -0.7,-1.23c7.08,1.19 21.2,7.45 16.74,17.09c-3.69,7.96 -12.32,-6.89 -14.52,-9.11c0.52,-0.41 1.05,-0.81 1.57,-1.21c5.16,9.84 0.75,19.81 -5.76,27.79c-8.52,10.41 -19.9,18.35 -30.88,25.94c-0.41,0.29 -1.14,0.1 -1.36,-0.36c-2.02,-4.23 -8.63,-6.39 -9.63,-10.98c-0.24,-1.13 0.11,-2.13 0.72,-3.09c0.59,-0.93 2.55,-2.15 2.69,-3.24c0.17,-1.27 -3.32,-3.2 -4.29,-3.84c-2.01,-1.35 -4.11,-2.55 -6.06,-3.98c-2.52,-1.86 -5.64,-4.5 -5.27,-7.98c0.21,-2.05 1.49,-2.64 2.72,-4.05c1.37,-1.56 1.21,-2.47 0.16,-4.18c-0.55,-0.88 -1.13,-1.4 -1.22,-2.52c-0.08,-0.98 0.25,-1.13 0.4,-2.02c0.37,-2.17 0.11,-3.4 -0.56,-5.35c-0.19,-0.56 -0.28,-1.08 -0.28,-1.66c0,-0.97 0.55,-1.84 0.54,-2.9c-0.01,-1.34 -0.48,-2.57 -1.1,-3.75c-1.82,-3.5 -4.06,-5.69 -1.77,-9.53c1.87,-3.15 5.33,-5.34 8.41,-7.13c3.48,-2.02 7.18,-3.62 10.86,-5.23c1.51,-0.66 2.35,-0.8 4.01,-1.12c3.25,-0.62 4.09,-2.85 4.01,-5.87c-0.07,-2.37 -0.25,-5.13 -0.81,-7.42c-0.86,-3.55 -4.31,-6.08 -7.56,-7.3c-6.23,-2.32 -13.4,-0.69 -19.85,-2.04c-5.71,-1.2 -9.77,-4.21 -13.05,-8.96c-3.94,-5.71 -7.89,-11.6 -11.44,-17.56c-3.1,-5.2 -4.28,-11.28 -7.41,-16.38c-1.79,-2.92 -4.83,-5.06 -7.5,-7.12c-2.31,-1.78 -4.52,-3.73 -6.89,-5.43c-1.71,-1.23 -4.01,-2.43 -5.23,-4.22c-1.19,-1.75 -0.54,-2.29 0.82,-3.68c5.59,-5.66 7.54,-13.42 6.72,-21.19c-0.6,-5.64 -3.34,-9.88 -6.71,-14.31c-2.8,-3.68 -6.76,-9.39 -11.35,-10.98c0.26,-0.61 0.52,-1.22 0.78,-1.82c9.89,6.11 16.13,16.5 15.63,28.29c-0.27,6.28 -2.81,11.44 -4.89,17.21c-1.88,5.22 -6.45,7.23 -11.46,8.76c-0.77,0.24 -1.37,-0.51 -1.23,-1.23c1.02,-5.13 -2.7,-9.29 -5.5,-13.15c-1.75,-2.41 -3.17,-5 -4.8,-7.47c-2.97,-4.51 -9.37,-14.75 -15.99,-12.56c0.08,-0.61 0.16,-1.22 0.24,-1.83c8.56,5.93 15.41,14.29 20.3,23.45c2,3.75 5.27,9.19 4.53,13.6c-0.48,2.86 -2.45,5.39 -3.77,7.94c-3.15,6.14 -6.11,12.37 -9.09,18.59c-0.92,1.91 -2.63,4.28 -3.05,6.38c-0.26,1.24 -0.01,0.05 0.13,0.89c0.35,1.97 0.82,3.54 0.47,5.58c-0.72,4.11 -3.34,7.69 -6.22,10.6c-3.17,3.21 -9.09,5.31 -10.21,9.87c-0.97,3.93 0.12,8.71 0.77,12.62c0.51,3.08 1.53,6.77 0.31,9.79c-1.5,3.72 -6.1,3.12 -9.39,3.21c-6.55,0.19 -13.1,0.24 -19.65,0.29c-7.6,0.06 -15.2,0.09 -22.79,0.09c-7.47,0.01 -16.89,-0.91 -20.43,7.3c-0.28,-0.51 -0.57,-1.01 -0.86,-1.51c6.39,0.29 12.83,0.74 19.22,0.55c1.3,-0.04 1.28,1.92 0,2c-4.43,0.27 -8.12,5.9 -4.71,9.72c0.71,0.8 1.76,1.34 2.85,1.36c0.52,0.11 1.02,0.01 1.48,-0.3c0.77,-0.04 1.27,-0.42 1.5,-1.13c0.58,-1.13 0.7,-1.04 0.38,0.28c0,0.21 -0.01,0.42 -0.01,0.63c0.06,2 1.01,3.86 2.67,5c3.21,2.18 6.96,0.65 7.01,-3.37c0,-0.2 -0.11,-2.29 -0.27,-2.29c0.36,0.01 0.57,1.29 0.69,1.52c0.64,1.24 1.25,2.5 2.78,2.65c3.67,0.35 2.78,-3.9 1.32,-5.64c0.57,-0.23 1.14,-0.47 1.71,-0.7c-0.07,3.71 3.4,11.13 8.22,8.71c1.71,-0.86 6.3,-7.74 3.04,-8.85c0.42,-0.32 0.84,-0.65 1.26,-0.97c-0.33,2.61 0.14,6.32 3.62,6c3.43,-0.31 2.88,-3.33 1,-5.22c0.57,-0.24 1.14,-0.47 1.71,-0.71c-0.23,3.9 7.42,7.44 9.67,3.54c0.96,-1.67 -0.35,-2.3 -0.3,-3.84c-0.06,-0.21 -0.12,-0.42 -0.18,-0.64c0.48,0.63 1.06,1.14 1.75,1.53c1.46,0.73 3.37,0.64 4.51,-0.63c1.65,-1.85 0.38,-4.04 -0.95,-5.57c-0.55,-0.64 -0.2,-1.7 0.71,-1.71c8.95,-0.03 17.9,-0.06 26.86,-0.1c-0.34,0.33 -0.67,0.67 -1,1c-0.7,-9.06 -10.18,-9.85 -17.41,-10.12c-4.16,-0.15 -11.78,0.5 -13.36,-4.38c-0.74,-2.28 -0.79,-4.86 -1.22,-7.21c-0.65,-3.62 -1.42,-7.23 -2.41,-10.78c-0.2,-0.69 -0.68,-3.81 -1.79,-3.96c-0.9,-0.11 -3.66,2.58 -4.17,3.11c-2.09,2.17 -2.76,4.88 -2.77,7.82c-0.01,3.77 1.03,8.07 -0.61,11.66c-0.93,2.01 -5.23,3.04 -7.2,1.92c-1.57,-0.88 -2.1,-3.69 -2.34,-5.29c-0.45,-3.04 -0.66,-6.4 -0.78,-9.46c-0.2,-4.91 3.36,-9.34 5.14,-13.69c0.56,0.33 1.12,0.65 1.67,0.97c-3.13,2.86 -5.19,7.81 -7.21,11.46c-0.87,1.58 -2.01,3.25 -2.59,4.97c-1.06,3.19 0.42,6.54 -0.03,9.76c-0.42,3.02 -5.02,3.13 -7.35,2.13c-2.73,-1.17 -2.96,-6 -3.64,-8.5c0.66,-0.09 1.31,-0.18 1.96,-0.27c0.07,2.88 0.16,5.76 0.11,8.63c-0.01,0.4 -0.3,0.9 -0.74,0.97c-2.32,0.34 -4.59,0.81 -6.94,0.96c-0.65,0.04 -1.13,-0.67 -0.96,-1.27c1.67,-5.93 7.34,-9.88 8.5,-15.91c1,-5.23 3.55,-8.84 7.11,-12.74c6.77,-7.4 15.16,-13.04 22.42,-19.91c6.66,-6.3 12.91,-14.44 13.58,-23.94c0.48,-6.88 0.14,-13.88 0.12,-20.77c-0.04,-12.1 -4.77,-26.67 4.21,-36.71c2.6,-2.9 5.75,-5.3 8.88,-7.59c2.49,-1.81 4.84,-3.34 6.76,-5.78c1.65,-2.08 3.29,-4.2 5.24,-6c7.92,-7.28 16.55,-1.68 25.19,1.18c5.7,1.89 11.6,3.68 16.71,6.93c4.86,3.08 7.76,6.46 7.59,12.4c-0.09,3.17 -0.82,6.28 -0.98,9.44c-0.21,3.94 -0.17,7.87 -0.52,11.8c-0.73,8.3 -2.15,16.52 -3.5,24.74c-0.17,1.03 -1.66,0.85 -1.93,0c-4.37,-13.68 -1.87,-28.09 0.91,-41.83c3.02,-14.98 5.88,-29.98 8.56,-45.03c1.37,-7.71 2.63,-15.6 4.96,-23.08c1.18,-3.77 2.5,-7.48 3.18,-11.39c0.78,-4.4 0.21,-8.39 -0.21,-12.79c-0.74,-7.89 0.35,-15.41 -2.34,-23.05c-1.16,-3.29 -2.56,-6.51 -3.44,-9.89c-0.92,-3.54 -1.04,-7.29 -1.4,-10.92c-1.84,-18.49 -3.32,-37.02 -3.45,-55.61c0.33,0.33 0.67,0.67 1,1l-38.13,0l-91.57,0l-110.76,0l-95.72,0l-31.36,0c-4.84,0 -10.25,0.69 -15.06,0c-0.2,-0.03 -0.42,0 -0.63,0c-1.29,0 -1.29,-2 0,-2" fill="#000000" fill-rule="nonzero" id="path24"/>
     </g>
    </g>
   </g>
  </g>
 </g>
</svg>