<?xml version="1.0" encoding="iso-8859-1"?>
<!-- Uploaded to: SVG Repo, www.svgrepo.com, Generator: SVG Repo Mixer Tools -->
<svg height="800px" width="800px" version="1.1" id="Layer_1" xmlns="http://www.w3.org/2000/svg" xmlns:xlink="http://www.w3.org/1999/xlink" 
	 viewBox="0 0 496.2 496.2" xml:space="preserve">
<path style="fill:#32BEA6;" d="M496.2,248.1C496.2,111.1,385.1,0,248.1,0S0,111.1,0,248.1s111.1,248.1,248.1,248.1
	S496.2,385.1,496.2,248.1z"/>
<g>
	<circle style="fill:#F9F9F9;" cx="199.8" cy="162.2" r="58.5"/>
	<circle style="fill:#F9F9F9;" cx="292.8" cy="162.2" r="58.5"/>
	<polygon style="fill:#F9F9F9;" points="318.6,311.2 177.6,311.2 162.1,180.4 334.1,180.4 	"/>
</g>
<polygon style="fill:#C9C9C9;" points="318.5,311.1 177.7,311.1 177.2,383 319,383 "/>
<path style="fill:#DBDBDB;" d="M246.1,227.4c-0.3-1.2-0.6-2.5-0.9-3.7c-0.3-1.2-0.5-2.5-0.7-3.7c-0.4-2.5-0.8-5-1.1-7.4
	c-0.3-2.5-0.5-5-0.7-7.4l-0.3-3.7l-0.2-3.7c0-0.8,0.2-1.5,0.6-2.1l0.2-0.3c0.3-0.4,0.8-1.1,1.2-1.7c0.4-0.6,0.8-1.2,1.2-1.9
	c0.8-1.3,1.5-2.6,2.2-3.9c1.4-2.6,2.6-5.4,3.6-8.2c2-5.6,3.2-11.5,3.5-17.4s-0.4-12-1.9-17.9c-0.7-3-1.7-5.9-2.8-8.9
	c-1.1-2.9-2.4-5.8-4-8.6c4.8,4.4,8.4,10,11.1,16s4.3,12.7,4.6,19.5c0.3,6.8-0.8,13.6-3,20c-1.1,3.2-2.4,6.3-4,9.3
	c-0.8,1.5-1.7,2.9-2.6,4.4c-0.5,0.7-0.9,1.4-1.5,2.1c-0.5,0.7-1,1.3-1.7,2.1l0.9-2.4l-0.2,3.7l-0.3,3.7c-0.2,2.5-0.4,5-0.7,7.4
	c-0.3,2.5-0.7,5-1.1,7.4c-0.2,1.2-0.5,2.5-0.7,3.7C246.7,225,246.4,226.2,246.1,227.4z"/>
<g>
	<path style="fill:#F9F9F9;" d="M191,376.2c-1.4,0-2.4-1.1-2.4-2.3l2.4-53.5c0-1.3,1.1-2.3,2.3-2.3s2.3,1.1,2.3,2.3l-2.2,53.5
		C193.5,375.1,192.4,376.2,191,376.2z"/>
	<path style="fill:#F9F9F9;" d="M217.9,376.2c-1.4,0-2.6-1.1-2.6-2.3l3-53.5c0-1.3,1.1-2.3,2.3-2.3s2.3,1.1,2.3,2.3l-2.5,53.5
		C220.5,375.1,219.4,376.2,217.9,376.2z"/>
	<path style="fill:#F9F9F9;" d="M248.1,376.2c-1.3,0-2.3-1.1-2.3-2.3v-53.5c0-1.3,1.1-2.3,2.3-2.3c1.2,0,2.3,1.1,2.3,2.3v53.5
		C250.4,375.1,249.4,376.2,248.1,376.2z"/>
	<path style="fill:#F9F9F9;" d="M278.3,376.2c-1.4,0-2.6-1.1-2.6-2.3l-2.5-53.5c0-1.3,1.1-2.3,2.3-2.3s2.3,1.1,2.3,2.3l3,53.5
		C280.9,375.1,279.7,376.2,278.3,376.2z"/>
	<path style="fill:#F9F9F9;" d="M305.2,376.2c-1.4,0-2.4-1.1-2.4-2.3l-2.2-53.5c0-1.3,1.1-2.3,2.3-2.3s2.3,1.1,2.3,2.3l2.4,53.5
		C307.6,375.1,306.5,376.2,305.2,376.2z"/>
</g>
</svg>